<svg width="189" height="149" viewBox="0 0 189 149" fill="none" xmlns="http://www.w3.org/2000/svg">
<path d="M89.6343 46.0652C88.856 46.1252 88.0747 46.1252 87.2963 46.0652C85.8216 45.8498 84.7785 45.0275 84.7785 43.2654C84.7785 33.8804 84.7785 24.5085 84.7785 15.1496C84.7785 12.7414 86.3791 12.1932 87.8359 12.017C87.6541 9.68908 87.6902 7.34711 87.9438 5.02719C88.4415 3.51883 89.3755 2.22714 90.6055 1.34631C91.8306 0.421768 93.2966 -0.0488753 94.7865 0.00401673C96.2765 0.0569088 97.7112 0.630515 98.8784 1.63998C101.648 4.02865 102.241 7.22006 100.677 11.8212C103.986 12.7806 104.166 13.0351 104.166 16.8726V40.5634C104.166 45.7519 104.166 45.7911 99.0942 46.2218V48.6105C99.0942 65.8989 98.9143 83.1678 99.2201 100.437C99.2201 105.331 100.803 110.226 101.72 115.082C102.367 118.528 102.979 122.013 103.86 125.4C104.268 126.719 105.033 127.872 106.054 128.709C108.176 130.452 110.496 131.881 113.248 133.78H75.4805C77.9444 132.077 79.8867 130.569 81.9729 129.316C82.8036 128.842 83.5209 128.164 84.0675 127.334C84.614 126.504 84.9745 125.547 85.1202 124.539C86.4331 117.568 87.9258 110.618 89.3106 103.648C89.5536 102.451 89.6802 101.231 89.6883 100.006C89.6883 82.737 89.6883 65.4616 89.6883 48.1797C89.7422 47.5728 89.6883 46.9854 89.6343 46.0652Z" fill="#F0E9E9"/>
<path d="M26.9229 35.3942C25.5412 34.8066 24.3386 33.8089 23.4516 32.5145C22.5646 31.2201 22.0289 29.6808 21.9052 28.0715C21.7396 25.9461 22.3483 23.835 23.6 22.1939C24.8517 20.5528 26.6459 19.5134 28.5955 19.3001C29.5785 19.1437 30.5807 19.2107 31.5387 19.4968C32.4968 19.783 33.3901 20.2821 34.1622 20.9626C34.9344 21.6432 35.5687 22.4905 36.0251 23.4512C36.4816 24.4118 36.7503 25.465 36.8144 26.5444C36.8144 30.8322 39.2963 32.6335 42.1018 34.2586C43.4522 35.0354 44.9421 35.4817 46.4673 35.5662C47.9926 35.6508 49.5165 35.3715 50.9323 34.748C55.878 32.6727 60.8058 30.284 65.6976 27.8953C70.5894 25.5067 75.5172 23.1767 81.0564 23.3921C81.6139 23.3921 82.1535 23.5096 82.8549 23.5879V30.2253C79.423 30.6562 76.0179 31.31 72.6576 32.1832C69.5927 33.3115 66.6306 34.7469 63.8092 36.471C54.2594 41.8553 44.3319 43.7545 33.4873 40.2302C34.6383 43.1279 35.6994 45.7516 36.7604 48.3752C42.4256 62.3155 48.1447 76.2559 53.7199 90.2355C54.6551 92.585 55.5183 94.4646 58.3959 93.4073V98.3804H0V93.8968C0.107907 93.8968 0.233797 93.6618 0.341704 93.6814C2.7876 94.1709 3.81273 92.7612 4.74792 90.4313C11.9417 72.4967 19.1356 54.6209 26.4553 36.7255C26.5992 36.3535 26.7071 36.0011 26.9229 35.3942ZM53.5221 93.4465C51.5797 88.7475 49.7813 84.3421 47.9828 79.9564C42.6234 66.7861 37.228 53.6224 31.7967 40.4652C31.3627 39.6292 30.8373 38.8534 30.232 38.1548L29.8004 38.4877V93.4465H53.5221ZM28.4516 93.4465V37.0584L27.948 36.9213L4.94575 93.4269L28.4516 93.4465Z" fill="#F0E9E9"/>
<path d="M155.531 40.2301C150.674 41.8407 145.571 42.3777 140.521 41.8094C135.472 41.2412 130.577 39.5792 126.126 36.9213C119.921 33.4166 113.717 29.8532 106.199 30.93V23.7053C109.384 23.0494 112.676 23.4098 115.677 24.743C120.785 26.9359 125.712 29.5791 130.802 31.8307C133.829 33.2446 136.964 34.3649 140.172 35.1787C144.848 36.2751 148.571 34.0627 151.448 30.1077C151.82 29.4855 152.008 28.7546 151.988 28.0127C152.132 23.3137 154.47 20.0048 158.139 19.3783C159.941 19.0099 161.804 19.3641 163.385 20.3754C164.966 21.3868 166.156 22.9869 166.738 24.88C167.319 26.7732 167.251 28.8313 166.546 30.6741C165.841 32.5168 164.548 34.0196 162.905 34.9046L161.987 35.5116L166.465 46.6521C172.328 61.1016 178.227 75.5314 184.054 90.0005C185.008 92.3108 185.673 94.8365 189 93.2898V98.3803H130.568V93.8771C130.568 93.8771 130.748 93.6422 130.838 93.6618C133.374 94.1904 134.291 92.6045 135.208 90.3333C141.575 74.4546 148.085 58.6346 154.542 42.795C154.793 42.051 155.117 41.2874 155.531 40.2301ZM159.02 38.1156C158.354 38.6051 157.761 38.7813 157.599 39.1533C150.189 57.1857 142.816 75.2182 135.37 93.4268H159.02V38.1156ZM183.982 93.4855L161.016 36.8821L160.531 37.117V93.4855H183.982Z" fill="#F0E9E9"/>
<path d="M144.794 142.434V148.307H44.2246V142.434H144.794Z" fill="#F0E9E9"/>
<path d="M186.734 100.671C184.378 104.724 182.202 108.503 179.918 112.418C179.699 112.64 179.441 112.812 179.16 112.923C178.878 113.034 178.58 113.082 178.281 113.065C165.92 113.065 153.576 113.065 141.251 113.065C140.554 113.004 139.907 112.645 139.452 112.066C137.222 108.444 135.118 104.724 132.834 100.769L186.734 100.671Z" fill="#F0E9E9"/>
<path d="M56.2021 100.632C53.8282 104.704 51.652 108.464 49.386 112.281C48.9483 112.729 48.3681 112.975 47.7674 112.967C35.418 112.967 23.0746 112.967 10.7372 112.967C10.4006 112.966 10.0676 112.892 9.75847 112.747C9.4493 112.602 9.17039 112.391 8.93872 112.125C6.69065 108.444 4.55048 104.665 2.23047 100.632H56.2021Z" fill="#F0E9E9"/>
<path d="M64.709 140.026V136.11H124.058V140.026H64.709Z" fill="#F0E9E9"/>
</svg>
